<svg xmlns="http://www.w3.org/2000/svg" width="600" height="600" viewBox="0 0 600 600">
<rect width="600" height="600" fill="#0a0a1a"/>
<title>AOTS6 T² CAD — Alfredo Jhovany Alfaro Garcia</title>
<!-- © 2025-2026 Alfredo Jhovany Alfaro Garcia -->
<ellipse cx="300" cy="300" rx="282.4" ry="98.8" fill="none" stroke="#00ffcc" stroke-width="0.8" opacity="0.80"/>
<ellipse cx="300" cy="300" rx="281.0" ry="98.3" fill="none" stroke="#00ffcc" stroke-width="0.8" opacity="0.79"/>
<ellipse cx="300" cy="300" rx="277.0" ry="96.9" fill="none" stroke="#00ffcc" stroke-width="0.8" opacity="0.76"/>
<ellipse cx="300" cy="300" rx="270.5" ry="94.7" fill="none" stroke="#00ffcc" stroke-width="0.8" opacity="0.72"/>
<ellipse cx="300" cy="300" rx="261.7" ry="91.6" fill="none" stroke="#00ffcc" stroke-width="0.8" opacity="0.65"/>
<ellipse cx="300" cy="300" rx="251.0" ry="87.8" fill="none" stroke="#00ffcc" stroke-width="0.8" opacity="0.58"/>
<ellipse cx="300" cy="300" rx="238.8" ry="83.6" fill="none" stroke="#00ffcc" stroke-width="0.8" opacity="0.49"/>
<ellipse cx="300" cy="300" rx="225.5" ry="78.9" fill="none" stroke="#00ffcc" stroke-width="0.8" opacity="0.40"/>
<ellipse cx="300" cy="300" rx="211.8" ry="74.1" fill="none" stroke="#00ffcc" stroke-width="0.8" opacity="0.30"/>
<ellipse cx="300" cy="300" rx="198.0" ry="69.3" fill="none" stroke="#00ffcc" stroke-width="0.8" opacity="0.40"/>
<ellipse cx="300" cy="300" rx="184.8" ry="64.7" fill="none" stroke="#00ffcc" stroke-width="0.8" opacity="0.49"/>
<ellipse cx="300" cy="300" rx="172.5" ry="60.4" fill="none" stroke="#00ffcc" stroke-width="0.8" opacity="0.58"/>
<ellipse cx="300" cy="300" rx="161.9" ry="56.6" fill="none" stroke="#00ffcc" stroke-width="0.8" opacity="0.65"/>
<ellipse cx="300" cy="300" rx="153.1" ry="53.6" fill="none" stroke="#00ffcc" stroke-width="0.8" opacity="0.72"/>
<ellipse cx="300" cy="300" rx="146.5" ry="51.3" fill="none" stroke="#00ffcc" stroke-width="0.8" opacity="0.76"/>
<ellipse cx="300" cy="300" rx="142.5" ry="49.9" fill="none" stroke="#00ffcc" stroke-width="0.8" opacity="0.79"/>
<path d="M 582.4,300.0 L 581.8,296.4 L 580.0,292.8 L 577.2,289.4 L 573.3,286.1 L 568.3,283.1 L 562.5,280.4 L 555.8,277.9 L 548.4,275.9 L 540.3,274.2 L 531.8,272.9 L 523.0,272.1 L 514.0,271.8 L 505.0,271.9 L 496.1,272.5 L 487.4,273.5 L 479.1,275.0 L 471.4,276.8 L 464.3,279.1 L 458.0,281.7 L 452.6,284.6 L 448.2,287.7 L 444.8,291.1 L 442.5,294.6 L 441.3,298.2 L 441.3,301.8 L 442.5,305.4 L 444.8,308.9 L 448.2,312.3 L 452.6,315.4 L 458.0,318.3 L 464.3,320.9 L 471.4,323.2 L 479.1,325.0 L 487.4,326.5 L 496.1,327.5 L 505.0,328.1 L 514.0,328.2 L 523.0,327.9 L 531.8,327.1 L 540.3,325.8 L 548.4,324.1 L 555.8,322.1 L 562.5,319.6 L 568.3,316.9 L 573.3,313.9 L 577.2,310.6 L 580.0,307.2 L 581.8,303.6 L 582.4,300.0" fill="none" stroke="#ff6600" stroke-width="0.5" opacity="0.4"/>
<path d="M 572.7,274.4 L 572.2,270.9 L 570.5,267.5 L 567.7,264.3 L 564.0,261.4 L 559.2,258.8 L 553.5,256.6 L 547.1,254.8 L 539.9,253.4 L 532.1,252.4 L 523.9,251.9 L 515.4,251.9 L 506.7,252.4 L 498.0,253.3 L 489.4,254.7 L 481.0,256.5 L 473.0,258.7 L 465.5,261.3 L 458.7,264.2 L 452.6,267.4 L 447.4,270.8 L 443.1,274.3 L 439.8,278.0 L 437.6,281.7 L 436.5,285.4 L 436.5,289.0 L 437.6,292.5 L 439.8,295.8 L 443.1,298.8 L 447.4,301.6 L 452.6,304.0 L 458.7,306.0 L 465.5,307.6 L 473.0,308.8 L 481.0,309.5 L 489.4,309.8 L 498.0,309.5 L 506.7,308.8 L 515.4,307.7 L 523.9,306.1 L 532.1,304.0 L 539.9,301.6 L 547.1,298.9 L 553.5,295.9 L 559.2,292.6 L 564.0,289.1 L 567.7,285.5 L 570.5,281.8 L 572.2,278.1 L 572.7,274.4" fill="none" stroke="#ff6600" stroke-width="0.5" opacity="0.4"/>
<path d="M 544.5,250.6 L 544.0,247.1 L 542.5,243.8 L 540.1,240.9 L 536.7,238.3 L 532.4,236.2 L 527.3,234.4 L 521.5,233.2 L 515.1,232.4 L 508.1,232.1 L 500.8,232.4 L 493.2,233.1 L 485.4,234.3 L 477.5,236.0 L 469.8,238.2 L 462.3,240.7 L 455.1,243.6 L 448.4,246.9 L 442.3,250.3 L 436.8,254.0 L 432.2,257.9 L 428.3,261.8 L 425.4,265.8 L 423.4,269.7 L 422.4,273.5 L 422.4,277.1 L 423.4,280.5 L 425.4,283.6 L 428.3,286.3 L 432.2,288.7 L 436.8,290.7 L 442.3,292.1 L 448.4,293.2 L 455.1,293.7 L 462.3,293.7 L 469.8,293.2 L 477.5,292.2 L 485.4,290.8 L 493.2,288.8 L 500.8,286.5 L 508.1,283.8 L 515.1,280.7 L 521.5,277.3 L 527.3,273.7 L 532.4,269.9 L 536.7,266.0 L 540.1,262.1 L 542.5,258.2 L 544.0,254.3 L 544.5,250.6" fill="none" stroke="#ff6600" stroke-width="0.5" opacity="0.4"/>
<path d="M 499.7,230.1 L 499.2,226.7 L 498.0,223.5 L 496.0,220.8 L 493.2,218.5 L 489.7,216.7 L 485.6,215.4 L 480.9,214.6 L 475.6,214.4 L 469.9,214.7 L 463.9,215.6 L 457.7,216.9 L 451.3,218.8 L 444.9,221.2 L 438.6,224.0 L 432.5,227.1 L 426.7,230.6 L 421.2,234.4 L 416.2,238.4 L 411.7,242.6 L 407.9,246.8 L 404.8,251.1 L 402.4,255.3 L 400.7,259.3 L 399.9,263.2 L 399.9,266.8 L 400.7,270.1 L 402.4,273.1 L 404.8,275.6 L 407.9,277.6 L 411.7,279.2 L 416.2,280.2 L 421.2,280.7 L 426.7,280.7 L 432.5,280.1 L 438.6,279.0 L 444.9,277.4 L 451.3,275.3 L 457.7,272.7 L 463.9,269.7 L 469.9,266.3 L 475.6,262.7 L 480.9,258.8 L 485.6,254.7 L 489.7,250.5 L 493.2,246.2 L 496.0,242.0 L 498.0,237.9 L 499.2,233.9 L 499.7,230.1" fill="none" stroke="#ff6600" stroke-width="0.5" opacity="0.4"/>
<path d="M 441.2,214.4 L 440.9,211.0 L 440.0,208.0 L 438.6,205.4 L 436.6,203.3 L 434.2,201.8 L 431.2,200.8 L 427.9,200.4 L 424.2,200.6 L 420.2,201.3 L 415.9,202.7 L 411.5,204.5 L 407.0,206.9 L 402.5,209.8 L 398.0,213.0 L 393.7,216.7 L 389.6,220.7 L 385.7,224.9 L 382.2,229.3 L 379.0,233.8 L 376.3,238.3 L 374.1,242.8 L 372.4,247.2 L 371.2,251.4 L 370.7,255.4 L 370.7,259.0 L 371.2,262.2 L 372.4,265.0 L 374.1,267.3 L 376.3,269.1 L 379.0,270.4 L 382.2,271.1 L 385.7,271.2 L 389.6,270.7 L 393.7,269.7 L 398.0,268.1 L 402.5,266.0 L 407.0,263.3 L 411.5,260.3 L 415.9,256.8 L 420.2,253.0 L 424.2,248.9 L 427.9,244.5 L 431.2,240.1 L 434.2,235.6 L 436.6,231.0 L 438.6,226.6 L 440.0,222.3 L 440.9,218.2 L 441.2,214.4" fill="none" stroke="#ff6600" stroke-width="0.5" opacity="0.4"/>
<path d="M 373.1,204.5 L 372.9,201.1 L 372.5,198.2 L 371.7,195.7 L 370.7,193.8 L 369.5,192.4 L 367.9,191.6 L 366.2,191.5 L 364.3,191.9 L 362.2,192.9 L 360.0,194.5 L 357.7,196.7 L 355.4,199.4 L 353.1,202.6 L 350.7,206.2 L 348.5,210.2 L 346.4,214.4 L 344.4,218.9 L 342.5,223.5 L 340.9,228.3 L 339.5,233.0 L 338.3,237.7 L 337.5,242.2 L 336.9,246.4 L 336.6,250.4 L 336.6,254.0 L 336.9,257.2 L 337.5,260.0 L 338.3,262.2 L 339.5,263.8 L 340.9,264.9 L 342.5,265.4 L 344.4,265.2 L 346.4,264.5 L 348.5,263.1 L 350.7,261.2 L 353.1,258.8 L 355.4,255.9 L 357.7,252.5 L 360.0,248.7 L 362.2,244.6 L 364.3,240.2 L 366.2,235.6 L 367.9,230.9 L 369.5,226.2 L 370.7,221.5 L 371.7,216.9 L 372.5,212.5 L 372.9,208.4 L 373.1,204.5" fill="none" stroke="#ff6600" stroke-width="0.5" opacity="0.4"/>
<path d="M 300.0,201.2 L 300.0,197.8 L 300.0,194.8 L 300.0,192.4 L 300.0,190.5 L 300.0,189.2 L 300.0,188.5 L 300.0,188.4 L 300.0,188.9 L 300.0,190.1 L 300.0,191.8 L 300.0,194.1 L 300.0,196.9 L 300.0,200.1 L 300.0,203.9 L 300.0,207.9 L 300.0,212.3 L 300.0,216.9 L 300.0,221.6 L 300.0,226.4 L 300.0,231.2 L 300.0,235.9 L 300.0,240.4 L 300.0,244.7 L 300.0,248.7 L 300.0,252.3 L 300.0,255.5 L 300.0,258.2 L 300.0,260.4 L 300.0,262.0 L 300.0,263.0 L 300.0,263.4 L 300.0,263.2 L 300.0,262.3 L 300.0,260.9 L 300.0,258.9 L 300.0,256.4 L 300.0,253.3 L 300.0,249.8 L 300.0,245.9 L 300.0,241.7 L 300.0,237.2 L 300.0,232.6 L 300.0,227.8 L 300.0,223.0 L 300.0,218.2 L 300.0,213.6 L 300.0,209.1 L 300.0,205.0 L 300.0,201.2" fill="none" stroke="#ff6600" stroke-width="0.5" opacity="0.4"/>
<path d="M 226.9,204.5 L 227.1,201.1 L 227.5,198.2 L 228.3,195.7 L 229.3,193.8 L 230.5,192.4 L 232.1,191.6 L 233.8,191.5 L 235.7,191.9 L 237.8,192.9 L 240.0,194.5 L 242.3,196.7 L 244.6,199.4 L 246.9,202.6 L 249.3,206.2 L 251.5,210.2 L 253.6,214.4 L 255.6,218.9 L 257.5,223.5 L 259.1,228.3 L 260.5,233.0 L 261.7,237.7 L 262.5,242.2 L 263.1,246.4 L 263.4,250.4 L 263.4,254.0 L 263.1,257.2 L 262.5,260.0 L 261.7,262.2 L 260.5,263.8 L 259.1,264.9 L 257.5,265.4 L 255.6,265.2 L 253.6,264.5 L 251.5,263.1 L 249.3,261.2 L 246.9,258.8 L 244.6,255.9 L 242.3,252.5 L 240.0,248.7 L 237.8,244.6 L 235.7,240.2 L 233.8,235.6 L 232.1,230.9 L 230.5,226.2 L 229.3,221.5 L 228.3,216.9 L 227.5,212.5 L 227.1,208.4 L 226.9,204.5" fill="none" stroke="#ff6600" stroke-width="0.5" opacity="0.4"/>
<path d="M 158.8,214.4 L 159.1,211.0 L 160.0,208.0 L 161.4,205.4 L 163.4,203.3 L 165.8,201.8 L 168.8,200.8 L 172.1,200.4 L 175.8,200.6 L 179.8,201.3 L 184.1,202.7 L 188.5,204.5 L 193.0,206.9 L 197.5,209.8 L 202.0,213.0 L 206.3,216.7 L 210.4,220.7 L 214.3,224.9 L 217.8,229.3 L 221.0,233.8 L 223.7,238.3 L 225.9,242.8 L 227.6,247.2 L 228.8,251.4 L 229.3,255.4 L 229.3,259.0 L 228.8,262.2 L 227.6,265.0 L 225.9,267.3 L 223.7,269.1 L 221.0,270.4 L 217.8,271.1 L 214.3,271.2 L 210.4,270.7 L 206.3,269.7 L 202.0,268.1 L 197.5,266.0 L 193.0,263.3 L 188.5,260.3 L 184.1,256.8 L 179.8,253.0 L 175.8,248.9 L 172.1,244.5 L 168.8,240.1 L 165.8,235.6 L 163.4,231.0 L 161.4,226.6 L 160.0,222.3 L 159.1,218.2 L 158.8,214.4" fill="none" stroke="#ff6600" stroke-width="0.5" opacity="0.4"/>
<path d="M 100.3,230.1 L 100.8,226.7 L 102.0,223.5 L 104.0,220.8 L 106.8,218.5 L 110.3,216.7 L 114.4,215.4 L 119.1,214.6 L 124.4,214.4 L 130.1,214.7 L 136.1,215.6 L 142.3,216.9 L 148.7,218.8 L 155.1,221.2 L 161.4,224.0 L 167.5,227.1 L 173.3,230.6 L 178.8,234.4 L 183.8,238.4 L 188.3,242.6 L 192.1,246.8 L 195.2,251.1 L 197.6,255.3 L 199.3,259.3 L 200.1,263.2 L 200.1,266.8 L 199.3,270.1 L 197.6,273.1 L 195.2,275.6 L 192.1,277.6 L 188.3,279.2 L 183.8,280.2 L 178.8,280.7 L 173.3,280.7 L 167.5,280.1 L 161.4,279.0 L 155.1,277.4 L 148.7,275.3 L 142.3,272.7 L 136.1,269.7 L 130.1,266.3 L 124.4,262.7 L 119.1,258.8 L 114.4,254.7 L 110.3,250.5 L 106.8,246.2 L 104.0,242.0 L 102.0,237.9 L 100.8,233.9 L 100.3,230.1" fill="none" stroke="#ff6600" stroke-width="0.5" opacity="0.4"/>
<path d="M 55.5,250.6 L 56.0,247.1 L 57.5,243.8 L 59.9,240.9 L 63.3,238.3 L 67.6,236.2 L 72.7,234.4 L 78.5,233.2 L 84.9,232.4 L 91.9,232.1 L 99.2,232.4 L 106.8,233.1 L 114.6,234.3 L 122.5,236.0 L 130.2,238.2 L 137.7,240.7 L 144.9,243.6 L 151.6,246.9 L 157.7,250.3 L 163.2,254.0 L 167.8,257.9 L 171.7,261.8 L 174.6,265.8 L 176.6,269.7 L 177.6,273.5 L 177.6,277.1 L 176.6,280.5 L 174.6,283.6 L 171.7,286.3 L 167.8,288.7 L 163.2,290.7 L 157.7,292.1 L 151.6,293.2 L 144.9,293.7 L 137.7,293.7 L 130.2,293.2 L 122.5,292.2 L 114.6,290.8 L 106.8,288.8 L 99.2,286.5 L 91.9,283.8 L 84.9,280.7 L 78.5,277.3 L 72.7,273.7 L 67.6,269.9 L 63.3,266.0 L 59.9,262.1 L 57.5,258.2 L 56.0,254.3 L 55.5,250.6" fill="none" stroke="#ff6600" stroke-width="0.5" opacity="0.4"/>
<path d="M 27.3,274.4 L 27.8,270.9 L 29.5,267.5 L 32.3,264.3 L 36.0,261.4 L 40.8,258.8 L 46.5,256.6 L 52.9,254.8 L 60.1,253.4 L 67.9,252.4 L 76.1,251.9 L 84.6,251.9 L 93.3,252.4 L 102.0,253.3 L 110.6,254.7 L 119.0,256.5 L 127.0,258.7 L 134.5,261.3 L 141.3,264.2 L 147.4,267.4 L 152.6,270.8 L 156.9,274.3 L 160.2,278.0 L 162.4,281.7 L 163.5,285.4 L 163.5,289.0 L 162.4,292.5 L 160.2,295.8 L 156.9,298.8 L 152.6,301.6 L 147.4,304.0 L 141.3,306.0 L 134.5,307.6 L 127.0,308.8 L 119.0,309.5 L 110.6,309.8 L 102.0,309.5 L 93.3,308.8 L 84.6,307.7 L 76.1,306.1 L 67.9,304.0 L 60.1,301.6 L 52.9,298.9 L 46.5,295.9 L 40.8,292.6 L 36.0,289.1 L 32.3,285.5 L 29.5,281.8 L 27.8,278.1 L 27.3,274.4" fill="none" stroke="#ff6600" stroke-width="0.5" opacity="0.4"/>
<path d="M 17.6,300.0 L 18.2,296.4 L 20.0,292.8 L 22.8,289.4 L 26.7,286.1 L 31.7,283.1 L 37.5,280.4 L 44.2,277.9 L 51.6,275.9 L 59.7,274.2 L 68.2,272.9 L 77.0,272.1 L 86.0,271.8 L 95.0,271.9 L 103.9,272.5 L 112.6,273.5 L 120.9,275.0 L 128.6,276.8 L 135.7,279.1 L 142.0,281.7 L 147.4,284.6 L 151.8,287.7 L 155.2,291.1 L 157.5,294.6 L 158.7,298.2 L 158.7,301.8 L 157.5,305.4 L 155.2,308.9 L 151.8,312.3 L 147.4,315.4 L 142.0,318.3 L 135.7,320.9 L 128.6,323.2 L 120.9,325.0 L 112.6,326.5 L 103.9,327.5 L 95.0,328.1 L 86.0,328.2 L 77.0,327.9 L 68.2,327.1 L 59.7,325.8 L 51.6,324.1 L 44.2,322.1 L 37.5,319.6 L 31.7,316.9 L 26.7,313.9 L 22.8,310.6 L 20.0,307.2 L 18.2,303.6 L 17.6,300.0" fill="none" stroke="#ff6600" stroke-width="0.5" opacity="0.4"/>
<path d="M 27.3,325.6 L 27.8,321.9 L 29.5,318.2 L 32.3,314.5 L 36.0,310.9 L 40.8,307.4 L 46.5,304.1 L 52.9,301.1 L 60.1,298.4 L 67.9,296.0 L 76.1,293.9 L 84.6,292.3 L 93.3,291.2 L 102.0,290.5 L 110.6,290.2 L 119.0,290.5 L 127.0,291.2 L 134.5,292.4 L 141.3,294.0 L 147.4,296.0 L 152.6,298.4 L 156.9,301.2 L 160.2,304.2 L 162.4,307.5 L 163.5,311.0 L 163.5,314.6 L 162.4,318.3 L 160.2,322.0 L 156.9,325.7 L 152.6,329.2 L 147.4,332.6 L 141.3,335.8 L 134.5,338.7 L 127.0,341.3 L 119.0,343.5 L 110.6,345.3 L 102.0,346.7 L 93.3,347.6 L 84.6,348.1 L 76.1,348.1 L 67.9,347.6 L 60.1,346.6 L 52.9,345.2 L 46.5,343.4 L 40.8,341.2 L 36.0,338.6 L 32.3,335.7 L 29.5,332.5 L 27.8,329.1 L 27.3,325.6" fill="none" stroke="#ff6600" stroke-width="0.5" opacity="0.4"/>
<path d="M 55.5,349.4 L 56.0,345.7 L 57.5,341.8 L 59.9,337.9 L 63.3,334.0 L 67.6,330.1 L 72.7,326.3 L 78.5,322.7 L 84.9,319.3 L 91.9,316.2 L 99.2,313.5 L 106.8,311.2 L 114.6,309.2 L 122.5,307.8 L 130.2,306.8 L 137.7,306.3 L 144.9,306.3 L 151.6,306.8 L 157.7,307.9 L 163.2,309.3 L 167.8,311.3 L 171.7,313.7 L 174.6,316.4 L 176.6,319.5 L 177.6,322.9 L 177.6,326.5 L 176.6,330.3 L 174.6,334.2 L 171.7,338.2 L 167.8,342.1 L 163.2,346.0 L 157.7,349.7 L 151.6,353.1 L 144.9,356.4 L 137.7,359.3 L 130.2,361.8 L 122.5,364.0 L 114.6,365.7 L 106.8,366.9 L 99.2,367.6 L 91.9,367.9 L 84.9,367.6 L 78.5,366.8 L 72.7,365.6 L 67.6,363.8 L 63.3,361.7 L 59.9,359.1 L 57.5,356.2 L 56.0,352.9 L 55.5,349.4" fill="none" stroke="#ff6600" stroke-width="0.5" opacity="0.4"/>
<path d="M 100.3,369.9 L 100.8,366.1 L 102.0,362.1 L 104.0,358.0 L 106.8,353.8 L 110.3,349.5 L 114.4,345.3 L 119.1,341.2 L 124.4,337.3 L 130.1,333.7 L 136.1,330.3 L 142.3,327.3 L 148.7,324.7 L 155.1,322.6 L 161.4,321.0 L 167.5,319.9 L 173.3,319.3 L 178.8,319.3 L 183.8,319.8 L 188.3,320.8 L 192.1,322.4 L 195.2,324.4 L 197.6,326.9 L 199.3,329.9 L 200.1,333.2 L 200.1,336.8 L 199.3,340.7 L 197.6,344.7 L 195.2,348.9 L 192.1,353.2 L 188.3,357.4 L 183.8,361.6 L 178.8,365.6 L 173.3,369.4 L 167.5,372.9 L 161.4,376.0 L 155.1,378.8 L 148.7,381.2 L 142.3,383.1 L 136.1,384.4 L 130.1,385.3 L 124.4,385.6 L 119.1,385.4 L 114.4,384.6 L 110.3,383.3 L 106.8,381.5 L 104.0,379.2 L 102.0,376.5 L 100.8,373.3 L 100.3,369.9" fill="none" stroke="#ff6600" stroke-width="0.5" opacity="0.4"/>
<path d="M 158.8,385.6 L 159.1,381.8 L 160.0,377.7 L 161.4,373.4 L 163.4,369.0 L 165.8,364.4 L 168.8,359.9 L 172.1,355.5 L 175.8,351.1 L 179.8,347.0 L 184.1,343.2 L 188.5,339.7 L 193.0,336.7 L 197.5,334.0 L 202.0,331.9 L 206.3,330.3 L 210.4,329.3 L 214.3,328.8 L 217.8,328.9 L 221.0,329.6 L 223.7,330.9 L 225.9,332.7 L 227.6,335.0 L 228.8,337.8 L 229.3,341.0 L 229.3,344.6 L 228.8,348.6 L 227.6,352.8 L 225.9,357.2 L 223.7,361.7 L 221.0,366.2 L 217.8,370.7 L 214.3,375.1 L 210.4,379.3 L 206.3,383.3 L 202.0,387.0 L 197.5,390.2 L 193.0,393.1 L 188.5,395.5 L 184.1,397.3 L 179.8,398.7 L 175.8,399.4 L 172.1,399.6 L 168.8,399.2 L 165.8,398.2 L 163.4,396.7 L 161.4,394.6 L 160.0,392.0 L 159.1,389.0 L 158.8,385.6" fill="none" stroke="#ff6600" stroke-width="0.5" opacity="0.4"/>
<path d="M 226.9,395.5 L 227.1,391.6 L 227.5,387.5 L 228.3,383.1 L 229.3,378.5 L 230.5,373.8 L 232.1,369.1 L 233.8,364.4 L 235.7,359.8 L 237.8,355.4 L 240.0,351.3 L 242.3,347.5 L 244.6,344.1 L 246.9,341.2 L 249.3,338.8 L 251.5,336.9 L 253.6,335.5 L 255.6,334.8 L 257.5,334.6 L 259.1,335.1 L 260.5,336.2 L 261.7,337.8 L 262.5,340.0 L 263.1,342.8 L 263.4,346.0 L 263.4,349.6 L 263.1,353.6 L 262.5,357.8 L 261.7,362.3 L 260.5,367.0 L 259.1,371.7 L 257.5,376.5 L 255.6,381.1 L 253.6,385.6 L 251.5,389.8 L 249.3,393.8 L 246.9,397.4 L 244.6,400.6 L 242.3,403.3 L 240.0,405.5 L 237.8,407.1 L 235.7,408.1 L 233.8,408.5 L 232.1,408.4 L 230.5,407.6 L 229.3,406.2 L 228.3,404.3 L 227.5,401.8 L 227.1,398.9 L 226.9,395.5" fill="none" stroke="#ff6600" stroke-width="0.5" opacity="0.4"/>
<path d="M 300.0,398.8 L 300.0,395.0 L 300.0,390.9 L 300.0,386.4 L 300.0,381.8 L 300.0,377.0 L 300.0,372.2 L 300.0,367.4 L 300.0,362.8 L 300.0,358.3 L 300.0,354.1 L 300.0,350.2 L 300.0,346.7 L 300.0,343.6 L 300.0,341.1 L 300.0,339.1 L 300.0,337.7 L 300.0,336.8 L 300.0,336.6 L 300.0,337.0 L 300.0,338.0 L 300.0,339.6 L 300.0,341.8 L 300.0,344.5 L 300.0,347.7 L 300.0,351.3 L 300.0,355.3 L 300.0,359.6 L 300.0,364.1 L 300.0,368.8 L 300.0,373.6 L 300.0,378.4 L 300.0,383.1 L 300.0,387.7 L 300.0,392.1 L 300.0,396.1 L 300.0,399.9 L 300.0,403.1 L 300.0,405.9 L 300.0,408.2 L 300.0,409.9 L 300.0,411.1 L 300.0,411.6 L 300.0,411.5 L 300.0,410.8 L 300.0,409.5 L 300.0,407.6 L 300.0,405.2 L 300.0,402.2 L 300.0,398.8" fill="none" stroke="#ff6600" stroke-width="0.5" opacity="0.4"/>
<path d="M 373.1,395.5 L 372.9,391.6 L 372.5,387.5 L 371.7,383.1 L 370.7,378.5 L 369.5,373.8 L 367.9,369.1 L 366.2,364.4 L 364.3,359.8 L 362.2,355.4 L 360.0,351.3 L 357.7,347.5 L 355.4,344.1 L 353.1,341.2 L 350.7,338.8 L 348.5,336.9 L 346.4,335.5 L 344.4,334.8 L 342.5,334.6 L 340.9,335.1 L 339.5,336.2 L 338.3,337.8 L 337.5,340.0 L 336.9,342.8 L 336.6,346.0 L 336.6,349.6 L 336.9,353.6 L 337.5,357.8 L 338.3,362.3 L 339.5,367.0 L 340.9,371.7 L 342.5,376.5 L 344.4,381.1 L 346.4,385.6 L 348.5,389.8 L 350.7,393.8 L 353.1,397.4 L 355.4,400.6 L 357.7,403.3 L 360.0,405.5 L 362.2,407.1 L 364.3,408.1 L 366.2,408.5 L 367.9,408.4 L 369.5,407.6 L 370.7,406.2 L 371.7,404.3 L 372.5,401.8 L 372.9,398.9 L 373.1,395.5" fill="none" stroke="#ff6600" stroke-width="0.5" opacity="0.4"/>
<path d="M 441.2,385.6 L 440.9,381.8 L 440.0,377.7 L 438.6,373.4 L 436.6,369.0 L 434.2,364.4 L 431.2,359.9 L 427.9,355.5 L 424.2,351.1 L 420.2,347.0 L 415.9,343.2 L 411.5,339.7 L 407.0,336.7 L 402.5,334.0 L 398.0,331.9 L 393.7,330.3 L 389.6,329.3 L 385.7,328.8 L 382.2,328.9 L 379.0,329.6 L 376.3,330.9 L 374.1,332.7 L 372.4,335.0 L 371.2,337.8 L 370.7,341.0 L 370.7,344.6 L 371.2,348.6 L 372.4,352.8 L 374.1,357.2 L 376.3,361.7 L 379.0,366.2 L 382.2,370.7 L 385.7,375.1 L 389.6,379.3 L 393.7,383.3 L 398.0,387.0 L 402.5,390.2 L 407.0,393.1 L 411.5,395.5 L 415.9,397.3 L 420.2,398.7 L 424.2,399.4 L 427.9,399.6 L 431.2,399.2 L 434.2,398.2 L 436.6,396.7 L 438.6,394.6 L 440.0,392.0 L 440.9,389.0 L 441.2,385.6" fill="none" stroke="#ff6600" stroke-width="0.5" opacity="0.4"/>
<path d="M 499.7,369.9 L 499.2,366.1 L 498.0,362.1 L 496.0,358.0 L 493.2,353.8 L 489.7,349.5 L 485.6,345.3 L 480.9,341.2 L 475.6,337.3 L 469.9,333.7 L 463.9,330.3 L 457.7,327.3 L 451.3,324.7 L 444.9,322.6 L 438.6,321.0 L 432.5,319.9 L 426.7,319.3 L 421.2,319.3 L 416.2,319.8 L 411.7,320.8 L 407.9,322.4 L 404.8,324.4 L 402.4,326.9 L 400.7,329.9 L 399.9,333.2 L 399.9,336.8 L 400.7,340.7 L 402.4,344.7 L 404.8,348.9 L 407.9,353.2 L 411.7,357.4 L 416.2,361.6 L 421.2,365.6 L 426.7,369.4 L 432.5,372.9 L 438.6,376.0 L 444.9,378.8 L 451.3,381.2 L 457.7,383.1 L 463.9,384.4 L 469.9,385.3 L 475.6,385.6 L 480.9,385.4 L 485.6,384.6 L 489.7,383.3 L 493.2,381.5 L 496.0,379.2 L 498.0,376.5 L 499.2,373.3 L 499.7,369.9" fill="none" stroke="#ff6600" stroke-width="0.5" opacity="0.4"/>
<path d="M 544.5,349.4 L 544.0,345.7 L 542.5,341.8 L 540.1,337.9 L 536.7,334.0 L 532.4,330.1 L 527.3,326.3 L 521.5,322.7 L 515.1,319.3 L 508.1,316.2 L 500.8,313.5 L 493.2,311.2 L 485.4,309.2 L 477.5,307.8 L 469.8,306.8 L 462.3,306.3 L 455.1,306.3 L 448.4,306.8 L 442.3,307.9 L 436.8,309.3 L 432.2,311.3 L 428.3,313.7 L 425.4,316.4 L 423.4,319.5 L 422.4,322.9 L 422.4,326.5 L 423.4,330.3 L 425.4,334.2 L 428.3,338.2 L 432.2,342.1 L 436.8,346.0 L 442.3,349.7 L 448.4,353.1 L 455.1,356.4 L 462.3,359.3 L 469.8,361.8 L 477.5,364.0 L 485.4,365.7 L 493.2,366.9 L 500.8,367.6 L 508.1,367.9 L 515.1,367.6 L 521.5,366.8 L 527.3,365.6 L 532.4,363.8 L 536.7,361.7 L 540.1,359.1 L 542.5,356.2 L 544.0,352.9 L 544.5,349.4" fill="none" stroke="#ff6600" stroke-width="0.5" opacity="0.4"/>
<path d="M 572.7,325.6 L 572.2,321.9 L 570.5,318.2 L 567.7,314.5 L 564.0,310.9 L 559.2,307.4 L 553.5,304.1 L 547.1,301.1 L 539.9,298.4 L 532.1,296.0 L 523.9,293.9 L 515.4,292.3 L 506.7,291.2 L 498.0,290.5 L 489.4,290.2 L 481.0,290.5 L 473.0,291.2 L 465.5,292.4 L 458.7,294.0 L 452.6,296.0 L 447.4,298.4 L 443.1,301.2 L 439.8,304.2 L 437.6,307.5 L 436.5,311.0 L 436.5,314.6 L 437.6,318.3 L 439.8,322.0 L 443.1,325.7 L 447.4,329.2 L 452.6,332.6 L 458.7,335.8 L 465.5,338.7 L 473.0,341.3 L 481.0,343.5 L 489.4,345.3 L 498.0,346.7 L 506.7,347.6 L 515.4,348.1 L 523.9,348.1 L 532.1,347.6 L 539.9,346.6 L 547.1,345.2 L 553.5,343.4 L 559.2,341.2 L 564.0,338.6 L 567.7,335.7 L 570.5,332.5 L 572.2,329.1 L 572.7,325.6" fill="none" stroke="#ff6600" stroke-width="0.5" opacity="0.4"/>
<line x1="292" y1="300" x2="308" y2="300" stroke="#ffffff" stroke-width="1" opacity="0.5"/>
<line x1="300" y1="292" x2="300" y2="308" stroke="#ffffff" stroke-width="1" opacity="0.5"/>
<text x="10" y="20" font-family="monospace" font-size="11" fill="#00ffcc">AOTS6 T² — R=3 r=1</text>
<text x="10" y="592" font-family="monospace" font-size="9" fill="#666666">© Alfredo Jhovany Alfaro Garcia</text>
</svg>