<svg xmlns="http://www.w3.org/2000/svg" width="500" height="500">
<rect width="500" height="500" fill="#050510"/>
<!-- AOTS6 Geodesic Flow on T² -->
<!-- © 2025-2026 Alfredo Jhovany Alfaro Garcia -->
<rect x="20" y="20" width="460" height="460" fill="none" stroke="#333366" stroke-width="1"/>
<path d="M 20.0,20.0 L 21.5,20.9 L 23.1,21.8 L 24.6,22.8 L 26.1,23.7 L 27.7,24.6 L 29.2,25.5 L 30.7,26.4 L 32.3,27.4 L 33.8,28.3 L 35.3,29.2 L 36.9,30.1 L 38.4,31.0 L 39.9,32.0 L 41.5,32.9 L 43.0,33.8 L 44.5,34.7 L 46.1,35.6 L 47.6,36.6 L 49.1,37.5 L 50.7,38.4 L 52.2,39.3 L 53.8,40.3 L 55.3,41.2 L 56.8,42.1 L 58.4,43.0 L 59.9,43.9 L 61.4,44.9 L 63.0,45.8 L 64.5,46.7 L 66.0,47.6 L 67.6,48.5 L 69.1,49.5 L 70.6,50.4 L 72.2,51.3 L 73.7,52.2 L 75.2,53.1 L 76.8,54.1 L 78.3,55.0 L 79.8,55.9 L 81.4,56.8 L 82.9,57.7 L 84.4,58.7 L 86.0,59.6 L 87.5,60.5 L 89.0,61.4 L 90.6,62.3 L 92.1,63.3 L 93.6,64.2 L 95.2,65.1 L 96.7,66.0 L 98.2,66.9 L 99.8,67.9 L 101.3,68.8 L 102.8,69.7 L 104.4,70.6 L 105.9,71.5 L 107.4,72.5 L 109.0,73.4 L 110.5,74.3 L 112.0,75.2 L 113.6,76.1 L 115.1,77.1 L 116.6,78.0 L 118.2,78.9 L 119.7,79.8 L 121.3,80.8 L 122.8,81.7 L 124.3,82.6 L 125.9,83.5 L 127.4,84.4 L 128.9,85.4 L 130.5,86.3 L 132.0,87.2 L 133.5,88.1 L 135.1,89.0 L 136.6,90.0 L 138.1,90.9 L 139.7,91.8 L 141.2,92.7 L 142.7,93.6 L 144.3,94.6 L 145.8,95.5 L 147.3,96.4 L 148.9,97.3 L 150.4,98.2 L 151.9,99.2 L 153.5,100.1 L 155.0,101.0 L 156.5,101.9 L 158.1,102.8 L 159.6,103.8 L 161.1,104.7 L 162.7,105.6 L 164.2,106.5 L 165.7,107.4 L 167.3,108.4 L 168.8,109.3 L 170.3,110.2 L 171.9,111.1 L 173.4,112.0 L 174.9,113.0 L 176.5,113.9 L 178.0,114.8 L 179.5,115.7 L 181.1,116.6 L 182.6,117.6 L 184.1,118.5 L 185.7,119.4 L 187.2,120.3 L 188.8,121.3 L 190.3,122.2 L 191.8,123.1 L 193.4,124.0 L 194.9,124.9 L 196.4,125.9 L 198.0,126.8 L 199.5,127.7 L 201.0,128.6 L 202.6,129.5 L 204.1,130.5 L 205.6,131.4 L 207.2,132.3 L 208.7,133.2 L 210.2,134.1 L 211.8,135.1 L 213.3,136.0 L 214.8,136.9 L 216.4,137.8 L 217.9,138.7 L 219.4,139.7 L 221.0,140.6 L 222.5,141.5 L 224.0,142.4 L 225.6,143.3 L 227.1,144.3 L 228.6,145.2 L 230.2,146.1 L 231.7,147.0 L 233.2,147.9 L 234.8,148.9 L 236.3,149.8 L 237.8,150.7 L 239.4,151.6 L 240.9,152.5 L 242.4,153.5 L 244.0,154.4 L 245.5,155.3 L 247.0,156.2 L 248.6,157.1 L 250.1,158.1 L 251.6,159.0 L 253.2,159.9 L 254.7,160.8 L 256.3,161.8 L 257.8,162.7 L 259.3,163.6 L 260.9,164.5 L 262.4,165.4 L 263.9,166.4 L 265.5,167.3 L 267.0,168.2 L 268.5,169.1 L 270.1,170.0 L 271.6,171.0 L 273.1,171.9 L 274.7,172.8 L 276.2,173.7 L 277.7,174.6 L 279.3,175.6 L 280.8,176.5 L 282.3,177.4 L 283.9,178.3 L 285.4,179.2 L 286.9,180.2 L 288.5,181.1 L 290.0,182.0 L 291.5,182.9 L 293.1,183.8 L 294.6,184.8 L 296.1,185.7 L 297.7,186.6 L 299.2,187.5 L 300.7,188.4 L 302.3,189.4 L 303.8,190.3 L 305.3,191.2 L 306.9,192.1 L 308.4,193.0 L 309.9,194.0 L 311.5,194.9 L 313.0,195.8 L 314.5,196.7 L 316.1,197.6 L 317.6,198.6 L 319.1,199.5 L 320.7,200.4 L 322.2,201.3 L 323.8,202.3 L 325.3,203.2 L 326.8,204.1 L 328.4,205.0 L 329.9,205.9 L 331.4,206.9 L 333.0,207.8 L 334.5,208.7 L 336.0,209.6 L 337.6,210.5 L 339.1,211.5 L 340.6,212.4 L 342.2,213.3 L 343.7,214.2 L 345.2,215.1 L 346.8,216.1 L 348.3,217.0 L 349.8,217.9 L 351.4,218.8 L 352.9,219.7 L 354.4,220.7 L 356.0,221.6 L 357.5,222.5 L 359.0,223.4 L 360.6,224.3 L 362.1,225.3 L 363.6,226.2 L 365.2,227.1 L 366.7,228.0 L 368.2,228.9 L 369.8,229.9 L 371.3,230.8 L 372.8,231.7 L 374.4,232.6 L 375.9,233.5 L 377.4,234.5 L 379.0,235.4 L 380.5,236.3 L 382.0,237.2 L 383.6,238.1 L 385.1,239.1 L 386.6,240.0 L 388.2,240.9 L 389.7,241.8 L 391.3,242.8 L 392.8,243.7 L 394.3,244.6 L 395.9,245.5 L 397.4,246.4 L 398.9,247.4 L 400.5,248.3 L 402.0,249.2 L 403.5,250.1 L 405.1,251.0 L 406.6,252.0 L 408.1,252.9 L 409.7,253.8 L 411.2,254.7 L 412.7,255.6 L 414.3,256.6 L 415.8,257.5 L 417.3,258.4 L 418.9,259.3 L 420.4,260.2 L 421.9,261.2 L 423.5,262.1 L 425.0,263.0 L 426.5,263.9 L 428.1,264.8 L 429.6,265.8 L 431.1,266.7 L 432.7,267.6 L 434.2,268.5 L 435.7,269.4 L 437.3,270.4 L 438.8,271.3 L 440.3,272.2 L 441.9,273.1 L 443.4,274.0 L 444.9,275.0 L 446.5,275.9 L 448.0,276.8 L 449.5,277.7 L 451.1,278.6 L 452.6,279.6 L 454.2,280.5 L 455.7,281.4 L 457.2,282.3 L 458.8,283.3 L 460.3,284.2 L 461.8,285.1 L 463.4,286.0 L 464.9,286.9 L 466.4,287.9 L 468.0,288.8 L 469.5,289.7 L 471.0,290.6 L 472.6,291.5 L 474.1,292.5 L 475.6,293.4 L 477.2,294.3 L 478.7,295.2" fill="none" stroke="#00ffcc" stroke-width="0.8" opacity="0.7"/>
<path d="M 20.0,20.0 L 20.7,21.2 L 21.3,22.3 L 22.0,23.5 L 22.6,24.6 L 23.3,25.8 L 23.9,26.9 L 24.6,28.1 L 25.3,29.2 L 25.9,30.4 L 26.6,31.5 L 27.2,32.7 L 27.9,33.8 L 28.5,35.0 L 29.2,36.1 L 29.9,37.3 L 30.5,38.4 L 31.2,39.6 L 31.8,40.7 L 32.5,41.9 L 33.1,43.0 L 33.8,44.2 L 34.5,45.3 L 35.1,46.5 L 35.8,47.6 L 36.4,48.8 L 37.1,49.9 L 37.8,51.1 L 38.4,52.2 L 39.1,53.4 L 39.7,54.5 L 40.4,55.7 L 41.0,56.8 L 41.7,58.0 L 42.4,59.1 L 43.0,60.3 L 43.7,61.4 L 44.3,62.6 L 45.0,63.7 L 45.6,64.9 L 46.3,66.0 L 47.0,67.2 L 47.6,68.3 L 48.3,69.5 L 48.9,70.6 L 49.6,71.8 L 50.2,72.9 L 50.9,74.1 L 51.6,75.2 L 52.2,76.4 L 52.9,77.5 L 53.5,78.7 L 54.2,79.8 L 54.8,81.0 L 55.5,82.1 L 56.2,83.3 L 56.8,84.4 L 57.5,85.6 L 58.1,86.7 L 58.8,87.9 L 59.4,89.0 L 60.1,90.2 L 60.8,91.3 L 61.4,92.5 L 62.1,93.6 L 62.7,94.8 L 63.4,95.9 L 64.1,97.1 L 64.7,98.2 L 65.4,99.4 L 66.0,100.5 L 66.7,101.7 L 67.3,102.8 L 68.0,104.0 L 68.7,105.1 L 69.3,106.3 L 70.0,107.4 L 70.6,108.6 L 71.3,109.7 L 71.9,110.9 L 72.6,112.0 L 73.3,113.2 L 73.9,114.3 L 74.6,115.5 L 75.2,116.6 L 75.9,117.8 L 76.5,118.9 L 77.2,120.1 L 77.9,121.3 L 78.5,122.4 L 79.2,123.6 L 79.8,124.7 L 80.5,125.9 L 81.1,127.0 L 81.8,128.2 L 82.5,129.3 L 83.1,130.5 L 83.8,131.6 L 84.4,132.8 L 85.1,133.9 L 85.7,135.1 L 86.4,136.2 L 87.1,137.4 L 87.7,138.5 L 88.4,139.7 L 89.0,140.8 L 89.7,142.0 L 90.3,143.1 L 91.0,144.3 L 91.7,145.4 L 92.3,146.6 L 93.0,147.7 L 93.6,148.9 L 94.3,150.0 L 95.0,151.2 L 95.6,152.3 L 96.3,153.5 L 96.9,154.6 L 97.6,155.8 L 98.2,156.9 L 98.9,158.1 L 99.6,159.2 L 100.2,160.4 L 100.9,161.5 L 101.5,162.7 L 102.2,163.8 L 102.8,165.0 L 103.5,166.1 L 104.2,167.3 L 104.8,168.4 L 105.5,169.6 L 106.1,170.7 L 106.8,171.9 L 107.4,173.0 L 108.1,174.2 L 108.8,175.3 L 109.4,176.5 L 110.1,177.6 L 110.7,178.8 L 111.4,179.9 L 112.0,181.1 L 112.7,182.2 L 113.4,183.4 L 114.0,184.5 L 114.7,185.7 L 115.3,186.8 L 116.0,188.0 L 116.6,189.1 L 117.3,190.3 L 118.0,191.4 L 118.6,192.6 L 119.3,193.7 L 119.9,194.9 L 120.6,196.0 L 121.3,197.2 L 121.9,198.3 L 122.6,199.5 L 123.2,200.6 L 123.9,201.8 L 124.5,202.9 L 125.2,204.1 L 125.9,205.2 L 126.5,206.4 L 127.2,207.5 L 127.8,208.7 L 128.5,209.8 L 129.1,211.0 L 129.8,212.1 L 130.5,213.3 L 131.1,214.4 L 131.8,215.6 L 132.4,216.7 L 133.1,217.9 L 133.7,219.0 L 134.4,220.2 L 135.1,221.4 L 135.7,222.5 L 136.4,223.7 L 137.0,224.8 L 137.7,226.0 L 138.3,227.1 L 139.0,228.3 L 139.7,229.4 L 140.3,230.6 L 141.0,231.7 L 141.6,232.9 L 142.3,234.0 L 142.9,235.2 L 143.6,236.3 L 144.3,237.5 L 144.9,238.6 L 145.6,239.8 L 146.2,240.9 L 146.9,242.1 L 147.5,243.2 L 148.2,244.4 L 148.9,245.5 L 149.5,246.7 L 150.2,247.8 L 150.8,249.0 L 151.5,250.1 L 152.2,251.3 L 152.8,252.4 L 153.5,253.6 L 154.1,254.7 L 154.8,255.9 L 155.4,257.0 L 156.1,258.2 L 156.8,259.3 L 157.4,260.5 L 158.1,261.6 L 158.7,262.8 L 159.4,263.9 L 160.0,265.1 L 160.7,266.2 L 161.4,267.4 L 162.0,268.5 L 162.7,269.7 L 163.3,270.8 L 164.0,272.0 L 164.6,273.1 L 165.3,274.3 L 166.0,275.4 L 166.6,276.6 L 167.3,277.7 L 167.9,278.9 L 168.6,280.0 L 169.2,281.2 L 169.9,282.3 L 170.6,283.5 L 171.2,284.6 L 171.9,285.8 L 172.5,286.9 L 173.2,288.1 L 173.8,289.2 L 174.5,290.4 L 175.2,291.5 L 175.8,292.7 L 176.5,293.8 L 177.1,295.0 L 177.8,296.1 L 178.5,297.3 L 179.1,298.4 L 179.8,299.6 L 180.4,300.7 L 181.1,301.9 L 181.7,303.0 L 182.4,304.2 L 183.1,305.3 L 183.7,306.5 L 184.4,307.6 L 185.0,308.8 L 185.7,309.9 L 186.3,311.1 L 187.0,312.2 L 187.7,313.4 L 188.3,314.5 L 189.0,315.7 L 189.6,316.8 L 190.3,318.0 L 190.9,319.1 L 191.6,320.3 L 192.3,321.5 L 192.9,322.6 L 193.6,323.8 L 194.2,324.9 L 194.9,326.1 L 195.5,327.2 L 196.2,328.4 L 196.9,329.5 L 197.5,330.7 L 198.2,331.8 L 198.8,333.0 L 199.5,334.1 L 200.1,335.3 L 200.8,336.4 L 201.5,337.6 L 202.1,338.7 L 202.8,339.9 L 203.4,341.0 L 204.1,342.2 L 204.7,343.3 L 205.4,344.5 L 206.1,345.6 L 206.7,346.8 L 207.4,347.9 L 208.0,349.1 L 208.7,350.2 L 209.4,351.4 L 210.0,352.5 L 210.7,353.7 L 211.3,354.8 L 212.0,356.0 L 212.6,357.1 L 213.3,358.3 L 214.0,359.4 L 214.6,360.6 L 215.3,361.7 L 215.9,362.9 L 216.6,364.0" fill="none" stroke="#ff6600" stroke-width="0.8" opacity="0.7"/>
<path d="M 20.0,20.0 L 22.8,21.8 L 25.7,23.5 L 28.5,25.3 L 31.4,27.0 L 34.2,28.8 L 37.1,30.5 L 39.9,32.3 L 42.8,34.1 L 45.6,35.8 L 48.4,37.6 L 51.3,39.3 L 54.1,41.1 L 57.0,42.9 L 59.8,44.6 L 62.7,46.4 L 65.5,48.1 L 68.4,49.9 L 71.2,51.6 L 74.0,53.4 L 76.9,55.2 L 79.7,56.9 L 82.6,58.7 L 85.4,60.4 L 88.3,62.2 L 91.1,64.0 L 93.9,65.7 L 96.8,67.5 L 99.6,69.2 L 102.5,71.0 L 105.3,72.7 L 108.2,74.5 L 111.0,76.3 L 113.9,78.0 L 116.7,79.8 L 119.5,81.5 L 122.4,83.3 L 125.2,85.0 L 128.1,86.8 L 130.9,88.6 L 133.8,90.3 L 136.6,92.1 L 139.5,93.8 L 142.3,95.6 L 145.1,97.4 L 148.0,99.1 L 150.8,100.9 L 153.7,102.6 L 156.5,104.4 L 159.4,106.1 L 162.2,107.9 L 165.1,109.7 L 167.9,111.4 L 170.7,113.2 L 173.6,114.9 L 176.4,116.7 L 179.3,118.5 L 182.1,120.2 L 185.0,122.0 L 187.8,123.7 L 190.7,125.5 L 193.5,127.2 L 196.3,129.0 L 199.2,130.8 L 202.0,132.5 L 204.9,134.3 L 207.7,136.0 L 210.6,137.8 L 213.4,139.5 L 216.3,141.3 L 219.1,143.1 L 221.9,144.8 L 224.8,146.6 L 227.6,148.3 L 230.5,150.1 L 233.3,151.9 L 236.2,153.6 L 239.0,155.4 L 241.8,157.1 L 244.7,158.9 L 247.5,160.6 L 250.4,162.4 L 253.2,164.2 L 256.1,165.9 L 258.9,167.7 L 261.8,169.4 L 264.6,171.2 L 267.4,173.0 L 270.3,174.7 L 273.1,176.5 L 276.0,178.2 L 278.8,180.0 L 281.7,181.7 L 284.5,183.5 L 287.4,185.3 L 290.2,187.0 L 293.0,188.8 L 295.9,190.5 L 298.7,192.3 L 301.6,194.0 L 304.4,195.8 L 307.3,197.6 L 310.1,199.3 L 313.0,201.1 L 315.8,202.8 L 318.6,204.6 L 321.5,206.4 L 324.3,208.1 L 327.2,209.9 L 330.0,211.6 L 332.9,213.4 L 335.7,215.1 L 338.6,216.9 L 341.4,218.7 L 344.2,220.4 L 347.1,222.2 L 349.9,223.9 L 352.8,225.7 L 355.6,227.5 L 358.5,229.2 L 361.3,231.0 L 364.2,232.7 L 367.0,234.5 L 369.8,236.2 L 372.7,238.0 L 375.5,239.8 L 378.4,241.5 L 381.2,243.3 L 384.1,245.0 L 386.9,246.8 L 389.7,248.6 L 392.6,250.3 L 395.4,252.1 L 398.3,253.8 L 401.1,255.6 L 404.0,257.3 L 406.8,259.1 L 409.7,260.9 L 412.5,262.6 L 415.3,264.4 L 418.2,266.1 L 421.0,267.9 L 423.9,269.6 L 426.7,271.4 L 429.6,273.2 L 432.4,274.9 L 435.3,276.7 L 438.1,278.4 L 440.9,280.2 L 443.8,282.0 L 446.6,283.7 L 449.5,285.5 L 452.3,287.2 L 455.2,289.0 L 458.0,290.7 L 460.9,292.5 L 463.7,294.3 L 466.5,296.0 L 469.4,297.8 L 472.2,299.5 L 475.1,301.3 L 477.9,303.1 L 20.8,304.8 L 23.6,306.6 L 26.5,308.3 L 29.3,310.1 L 32.1,311.8 L 35.0,313.6 L 37.8,315.4 L 40.7,317.1 L 43.5,318.9 L 46.4,320.6 L 49.2,322.4 L 52.1,324.1 L 54.9,325.9 L 57.7,327.7 L 60.6,329.4 L 63.4,331.2 L 66.3,332.9 L 69.1,334.7 L 72.0,336.5 L 74.8,338.2 L 77.6,340.0 L 80.5,341.7 L 83.3,343.5 L 86.2,345.2 L 89.0,347.0 L 91.9,348.8 L 94.7,350.5 L 97.6,352.3 L 100.4,354.0 L 103.2,355.8 L 106.1,357.6 L 108.9,359.3 L 111.8,361.1 L 114.6,362.8 L 117.5,364.6 L 120.3,366.3 L 123.2,368.1 L 126.0,369.9 L 128.8,371.6 L 131.7,373.4 L 134.5,375.1 L 137.4,376.9 L 140.2,378.6 L 143.1,380.4 L 145.9,382.2 L 148.8,383.9 L 151.6,385.7 L 154.4,387.4 L 157.3,389.2 L 160.1,391.0 L 163.0,392.7 L 165.8,394.5 L 168.7,396.2 L 171.5,398.0 L 174.4,399.7 L 177.2,401.5 L 180.0,403.3 L 182.9,405.0 L 185.7,406.8 L 188.6,408.5 L 191.4,410.3 L 194.3,412.1 L 197.1,413.8 L 199.9,415.6 L 202.8,417.3 L 205.6,419.1 L 208.5,420.8 L 211.3,422.6 L 214.2,424.4 L 217.0,426.1 L 219.9,427.9 L 222.7,429.6 L 225.5,431.4 L 228.4,433.1 L 231.2,434.9 L 234.1,436.7 L 236.9,438.4 L 239.8,440.2 L 242.6,441.9 L 245.5,443.7 L 248.3,445.5 L 251.1,447.2 L 254.0,449.0 L 256.8,450.7 L 259.7,452.5 L 262.5,454.2 L 265.4,456.0 L 268.2,457.8 L 271.1,459.5 L 273.9,461.3 L 276.7,463.0 L 279.6,464.8 L 282.4,466.6 L 285.3,468.3 L 288.1,470.1 L 291.0,471.8 L 293.8,473.6 L 296.7,475.3 L 299.5,477.1 L 302.3,478.9 L 305.2,20.6 L 308.0,22.4 L 310.9,24.1 L 313.7,25.9 L 316.6,27.6 L 319.4,29.4 L 322.3,31.2 L 325.1,32.9 L 327.9,34.7 L 330.8,36.4 L 333.6,38.2 L 336.5,40.0 L 339.3,41.7 L 342.2,43.5 L 345.0,45.2 L 347.8,47.0 L 350.7,48.7 L 353.5,50.5 L 356.4,52.3 L 359.2,54.0 L 362.1,55.8 L 364.9,57.5 L 367.8,59.3 L 370.6,61.1 L 373.4,62.8 L 376.3,64.6 L 379.1,66.3 L 382.0,68.1 L 384.8,69.8 L 387.7,71.6 L 390.5,73.4 L 393.4,75.1 L 396.2,76.9 L 399.0,78.6 L 401.9,80.4 L 404.7,82.1 L 407.6,83.9 L 410.4,85.7" fill="none" stroke="#ff00ff" stroke-width="0.8" opacity="0.7"/>
<path d="M 20.0,20.0 L 22.3,24.0 L 24.6,28.0 L 26.9,32.0 L 29.2,35.9 L 31.5,39.9 L 33.8,43.9 L 36.1,47.9 L 38.4,51.9 L 40.7,55.9 L 43.0,59.9 L 45.3,63.8 L 47.6,67.8 L 49.9,71.8 L 52.2,75.8 L 54.5,79.8 L 56.8,83.8 L 59.1,87.8 L 61.4,91.7 L 63.7,95.7 L 66.0,99.7 L 68.3,103.7 L 70.6,107.7 L 72.9,111.7 L 75.2,115.7 L 77.5,119.6 L 79.8,123.6 L 82.1,127.6 L 84.4,131.6 L 86.7,135.6 L 89.0,139.6 L 91.3,143.6 L 93.6,147.5 L 95.9,151.5 L 98.2,155.5 L 100.5,159.5 L 102.8,163.5 L 105.1,167.5 L 107.4,171.5 L 109.7,175.4 L 112.0,179.4 L 114.3,183.4 L 116.6,187.4 L 118.9,191.4 L 121.3,195.4 L 123.6,199.4 L 125.9,203.3 L 128.2,207.3 L 130.5,211.3 L 132.8,215.3 L 135.1,219.3 L 137.4,223.3 L 139.7,227.3 L 142.0,231.2 L 144.3,235.2 L 146.6,239.2 L 148.9,243.2 L 151.2,247.2 L 153.5,251.2 L 155.8,255.1 L 158.1,259.1 L 160.4,263.1 L 162.7,267.1 L 165.0,271.1 L 167.3,275.1 L 169.6,279.1 L 171.9,283.0 L 174.2,287.0 L 176.5,291.0 L 178.8,295.0 L 181.1,299.0 L 183.4,303.0 L 185.7,307.0 L 188.0,310.9 L 190.3,314.9 L 192.6,318.9 L 194.9,322.9 L 197.2,326.9 L 199.5,330.9 L 201.8,334.9 L 204.1,338.8 L 206.4,342.8 L 208.7,346.8 L 211.0,350.8 L 213.3,354.8 L 215.6,358.8 L 217.9,362.8 L 220.2,366.7 L 222.5,370.7 L 224.8,374.7 L 227.1,378.7 L 229.4,382.7 L 231.7,386.7 L 234.0,390.7 L 236.3,394.6 L 238.6,398.6 L 240.9,402.6 L 243.2,406.6 L 245.5,410.6 L 247.8,414.6 L 250.1,418.6 L 252.4,422.5 L 254.7,426.5 L 257.0,430.5 L 259.3,434.5 L 261.6,438.5 L 263.9,442.5 L 266.2,446.5 L 268.5,450.4 L 270.8,454.4 L 273.1,458.4 L 275.4,462.4 L 277.7,466.4 L 280.0,470.4 L 282.3,474.4 L 284.6,478.3 L 286.9,22.3 L 289.2,26.3 L 291.5,30.3 L 293.8,34.3 L 296.1,38.3 L 298.4,42.3 L 300.7,46.2 L 303.0,50.2 L 305.3,54.2 L 307.6,58.2 L 309.9,62.2 L 312.2,66.2 L 314.5,70.2 L 316.8,74.1 L 319.1,78.1 L 321.5,82.1 L 323.8,86.1 L 326.1,90.1 L 328.4,94.1 L 330.7,98.1 L 333.0,102.0 L 335.3,106.0 L 337.6,110.0 L 339.9,114.0 L 342.2,118.0 L 344.5,122.0 L 346.8,126.0 L 349.1,129.9 L 351.4,133.9 L 353.7,137.9 L 356.0,141.9 L 358.3,145.9 L 360.6,149.9 L 362.9,153.9 L 365.2,157.8 L 367.5,161.8 L 369.8,165.8 L 372.1,169.8 L 374.4,173.8 L 376.7,177.8 L 379.0,181.8 L 381.3,185.7 L 383.6,189.7 L 385.9,193.7 L 388.2,197.7 L 390.5,201.7 L 392.8,205.7 L 395.1,209.7 L 397.4,213.6 L 399.7,217.6 L 402.0,221.6 L 404.3,225.6 L 406.6,229.6 L 408.9,233.6 L 411.2,237.6 L 413.5,241.5 L 415.8,245.5 L 418.1,249.5 L 420.4,253.5 L 422.7,257.5 L 425.0,261.5 L 427.3,265.4 L 429.6,269.4 L 431.9,273.4 L 434.2,277.4 L 436.5,281.4 L 438.8,285.4 L 441.1,289.4 L 443.4,293.3 L 445.7,297.3 L 448.0,301.3 L 450.3,305.3 L 452.6,309.3 L 454.9,313.3 L 457.2,317.3 L 459.5,321.2 L 461.8,325.2 L 464.1,329.2 L 466.4,333.2 L 468.7,337.2 L 471.0,341.2 L 473.3,345.2 L 475.6,349.1 L 477.9,353.1 L 20.2,357.1 L 22.5,361.1 L 24.8,365.1 L 27.1,369.1 L 29.4,373.1 L 31.7,377.0 L 34.0,381.0 L 36.3,385.0 L 38.6,389.0 L 40.9,393.0 L 43.2,397.0 L 45.5,401.0 L 47.8,404.9 L 50.1,408.9 L 52.4,412.9 L 54.7,416.9 L 57.0,420.9 L 59.3,424.9 L 61.7,428.9 L 64.0,432.8 L 66.3,436.8 L 68.6,440.8 L 70.9,444.8 L 73.2,448.8 L 75.5,452.8 L 77.8,456.8 L 80.1,460.7 L 82.4,464.7 L 84.7,468.7 L 87.0,472.7 L 89.3,476.7 L 91.6,20.7 L 93.9,24.7 L 96.2,28.6 L 98.5,32.6 L 100.8,36.6 L 103.1,40.6 L 105.4,44.6 L 107.7,48.6 L 110.0,52.6 L 112.3,56.5 L 114.6,60.5 L 116.9,64.5 L 119.2,68.5 L 121.5,72.5 L 123.8,76.5 L 126.1,80.5 L 128.4,84.4 L 130.7,88.4 L 133.0,92.4 L 135.3,96.4 L 137.6,100.4 L 139.9,104.4 L 142.2,108.4 L 144.5,112.3 L 146.8,116.3 L 149.1,120.3 L 151.4,124.3 L 153.7,128.3 L 156.0,132.3 L 158.3,136.3 L 160.6,140.2 L 162.9,144.2 L 165.2,148.2 L 167.5,152.2 L 169.8,156.2 L 172.1,160.2 L 174.4,164.2 L 176.7,168.1 L 179.0,172.1 L 181.3,176.1 L 183.6,180.1 L 185.9,184.1 L 188.2,188.1 L 190.5,192.1 L 192.8,196.0 L 195.1,200.0 L 197.4,204.0 L 199.7,208.0 L 202.0,212.0 L 204.3,216.0 L 206.6,220.0 L 208.9,223.9 L 211.2,227.9 L 213.5,231.9 L 215.8,235.9 L 218.1,239.9 L 220.4,243.9 L 222.7,247.9 L 225.0,251.8 L 227.3,255.8 L 229.6,259.8 L 231.9,263.8 L 234.2,267.8 L 236.5,271.8 L 238.8,275.7 L 241.1,279.7 L 243.4,283.7 L 245.7,287.7 L 248.0,291.7" fill="none" stroke="#ffff00" stroke-width="0.8" opacity="0.7"/>
<line x1="112" y1="20" x2="112" y2="480" stroke="#222244" stroke-width="0.5"/>
<line x1="20" y1="112" x2="480" y2="112" stroke="#222244" stroke-width="0.5"/>
<line x1="204" y1="20" x2="204" y2="480" stroke="#222244" stroke-width="0.5"/>
<line x1="20" y1="204" x2="480" y2="204" stroke="#222244" stroke-width="0.5"/>
<line x1="296" y1="20" x2="296" y2="480" stroke="#222244" stroke-width="0.5"/>
<line x1="20" y1="296" x2="480" y2="296" stroke="#222244" stroke-width="0.5"/>
<line x1="388" y1="20" x2="388" y2="480" stroke="#222244" stroke-width="0.5"/>
<line x1="20" y1="388" x2="480" y2="388" stroke="#222244" stroke-width="0.5"/>
<text x="25" y="15" font-family="monospace" font-size="11" fill="#00ffcc">T² Geodesic Flow</text>
</svg>